<svg width="32" height="32" fill="none" xmlns="http://www.w3.org/2000/svg"><path d="M0 6a6 6 0 016-6h20a6 6 0 016 6v20a6 6 0 01-6 6H6a6 6 0 01-6-6V6z" fill="#2A3052"/><path fill-rule="evenodd" clip-rule="evenodd" d="M17.435 16.102a.444.444 0 00-.142-.293 1.117 1.117 0 01-.082-.09 1.836 1.836 0 00-.171-.177c-.953-1.012-.835-1.662-.823-1.728v-.005a1.39 1.39 0 00-.52-1.094l-.048-.062a.244.244 0 01-.036-.035c.505.141 1.019.25 1.538.328.23.042.464.056.698.04.52 0 .929-.062.955-.182a6.813 6.813 0 01-1.378-.404l-.018-.007c-.49-.19-.572-.221-.893-.327-.417-.137-.866-.333-.866-.333l.49.13c1.407.375 1.968.525 2.71.537a2.61 2.61 0 00.613-.058c.12 0 .48-.102.52-.227a2.993 2.993 0 01-1.013-.16c-1.29-.428-1.85-.722-2.364-.99a9.666 9.666 0 00-1.063-.499c-.57-.238-1.16-.424-1.764-.555a3.374 3.374 0 00-1.52 0c-1.587-.373-1.947-.333-2.414-.231a8.031 8.031 0 015.191-1.218V4.889h-4.813a5.333 5.333 0 00-5.333 5.333v11.556a5.333 5.333 0 005.333 5.333h4.822v-3.853a32.793 32.793 0 00-.542-.09c-.528-.085-.856-.137-1.067-.284-.084-.053-.35-.195-.413-.16a.756.756 0 01-.911-.058.687.687 0 01-.085-.075.645.645 0 01-.124-.889c.085-.089-.067-.333-.067-.333s-.444-.663-.746-1.058a3.022 3.022 0 01-.383-1.307 3.698 3.698 0 01-.484-.733 1.834 1.834 0 00-.262-.316 1.689 1.689 0 01-.156-.173.076.076 0 010-.058c.122-.254.3-.477.52-.653.107-.071.565-.347.565-.347a.889.889 0 01.666-.404c.454-.027.908.041 1.334.2l.284.089c.417.136.827.295 1.227.475.22.101.448.189.68.262.586.156 1.626-.32 1.844-.52.356-.324.507-.542.511-.724zm-2.729-2.769l-.288-.378a2.151 2.151 0 011.213 1.307c-1.169.28-.925-.929-.925-.929zm4.845 9.089a7.964 7.964 0 002.636-5.467h4.924v4.823a5.333 5.333 0 01-5.334 5.333h-4.822v-3.556a4.667 4.667 0 002.596-1.133zm-7.91-2.583a1.835 1.835 0 01-.286-.728C12.382 19.04 12 20 12 20l.204.382a1.837 1.837 0 01-.563-.543zm5.314-14.95h4.823a5.333 5.333 0 015.333 5.333v4.809h-5.014A7.889 7.889 0 0020.89 12l-.05-.045a8.263 8.263 0 00-.981-1.182 7.92 7.92 0 00-2.903-1.858V4.89z" fill="#fff"/></svg>