<svg width="32" height="32" fill="none" xmlns="http://www.w3.org/2000/svg"><path d="M0 6a6 6 0 016-6h20a6 6 0 016 6v20a6 6 0 01-6 6H6a6 6 0 01-6-6V6z" fill="#2A3052"/><path fill-rule="evenodd" clip-rule="evenodd" d="M11.88 11.377a3.451 3.451 0 001.88 4.331l2.356 1.057.747 3.686-4.392-1.989a6.472 6.472 0 014.32-12.125c.354.09.7.208 1.035.355l4.49 2.042-3.451 1.694-2.266-1.029a3.352 3.352 0 00-.517-.176 3.451 3.451 0 00-4.202 2.154zm3.292.253l4.392 1.989a6.466 6.466 0 01-5.346 11.764l-4.492-2.042 3.45-1.694 2.244 1.032c.167.074.34.133.518.176a3.451 3.451 0 002.321-6.482l-2.36-1.082-.727-3.661z" fill="#fff"/></svg>